<svg xmlns="http://www.w3.org/2000/svg" viewBox="0 0 200 220" width="200" height="220" role="img" aria-label="Dixie Hart cartoon avatar">
  <rect x="0" y="0" width="200" height="220" rx="18" fill="#16283d"/>
  <path d="M28 220 Q28 160 100 160 Q172 160 172 220 Z" fill="#3f6a9e"/>
  <path d="M70 168 Q100 150 130 168 L130 200 Q100 188 70 200 Z" fill="#d9b382" opacity="0.85"/>
  <circle cx="100" cy="80" r="46" fill="#d9b382"/>
  <path d="M40 58 Q100 30 160 58 Q100 46 40 58 Z" fill="#8a5a2b"/>
  <path d="M58 50 Q100 12 142 50 Q100 36 58 50 Z" fill="#a06a33"/>
  <circle cx="84" cy="82" r="6" fill="#16283d"/>
  <circle cx="116" cy="82" r="6" fill="#16283d"/>
  <path d="M82 106 Q100 124 118 106" stroke="#16283d" stroke-width="4" fill="none" stroke-linecap="round"/>
  <circle cx="100" cy="186" r="7" fill="#d9b382"/>
</svg>
